<svg width="1575" height="1575" viewBox="0 0 1575 1575" fill="none" xmlns="http://www.w3.org/2000/svg">
<rect x="315.194" y="90.2659" width="915.068" height="915.068" rx="142" fill="url(#paint0_linear_906_2)"/>
<path d="M726.672 729.119V366.481H818.784V729.119H726.672ZM590.562 593.642V501.958H954.894V593.642H590.562Z" fill="white"/>
<rect x="485.095" y="64" width="915.068" height="915.068" rx="142" transform="rotate(15 485.095 64)" fill="url(#paint1_linear_906_2)"/>
<path d="M717.205 787.583L811.063 437.301L900.036 461.142L806.179 811.423L717.205 787.583ZM620.797 621.494L644.526 532.934L996.444 627.23L972.715 715.79L620.797 621.494Z" fill="white"/>
<rect x="206.741" y="300.837" width="915.068" height="915.068" rx="142" transform="rotate(-15 206.741 300.837)" fill="url(#paint2_linear_906_2)"/>
<path d="M769.545 811.423L675.688 461.142L764.662 437.302L858.519 787.583L769.545 811.423ZM603.009 715.79L579.28 627.231L931.198 532.934L954.927 621.494L603.009 715.79Z" fill="#404040" fill-opacity="0.52"/>
<path d="M141 477H1442V1401C1442 1479.42 1378.42 1543 1300 1543H283C204.576 1543 141 1479.42 141 1401V477Z" fill="url(#paint3_linear_906_2)"/>
<path d="M654.66 958.385H634.969C608.097 957.414 581.312 961.976 556.276 971.788C531.241 981.6 508.489 996.452 489.432 1015.42L484 1021.76V1209.17H576.347V1102.79L588.795 1088.76L594.454 1082.19C623.922 1051.92 660.608 1029.64 701.06 1017.46C680.814 1002.04 664.842 981.708 654.66 958.385Z" fill="white"/>
<path d="M1092.4 1014.74C1073.34 995.767 1050.59 980.915 1025.55 971.103C1000.52 961.291 973.734 956.729 946.862 957.701C938.621 957.745 930.387 958.198 922.191 959.059C911.818 980.939 896.283 999.969 876.923 1014.51C920.112 1026.45 959.236 1049.92 990.092 1082.41L995.751 1088.75L1007.97 1102.78V1209.39H1097.15V1021.08L1092.4 1014.74Z" fill="white"/>
<path d="M634.288 914.235H641.304C638.044 886.242 642.956 857.904 655.447 832.642C667.938 807.379 687.473 786.271 711.696 771.867C702.916 758.453 690.802 747.549 676.541 740.224C662.28 732.898 646.362 729.401 630.344 730.076C614.325 730.752 598.757 735.575 585.163 744.074C571.57 752.574 560.416 764.458 552.795 778.563C545.175 792.669 541.348 808.511 541.689 824.54C542.031 840.569 546.529 856.234 554.744 870.001C562.959 883.769 574.609 895.167 588.552 903.08C602.496 910.993 618.256 915.148 634.288 915.14V914.235Z" fill="white"/>
<path d="M936.006 897.265C936.263 902.468 936.263 907.68 936.006 912.883C940.349 913.579 944.736 913.957 949.134 914.015H953.435C969.396 913.164 984.866 908.194 998.337 899.59C1011.81 890.985 1022.82 879.039 1030.31 864.915C1037.79 850.791 1041.49 834.969 1041.04 818.991C1040.6 803.013 1036.02 787.422 1027.76 773.737C1019.5 760.052 1007.84 748.739 993.909 740.899C979.979 733.059 964.257 728.96 948.273 729C932.288 729.041 916.586 733.219 902.696 741.129C888.806 749.039 877.201 760.41 869.01 774.137C889.495 787.512 906.34 805.763 918.034 827.253C929.727 848.744 935.902 872.8 936.006 897.265Z" fill="white"/>
<path d="M787.521 998.675C843.398 998.675 888.695 953.378 888.695 897.501C888.695 841.624 843.398 796.327 787.521 796.327C731.644 796.327 686.347 841.624 686.347 897.501C686.347 953.378 731.644 998.675 787.521 998.675Z" fill="white"/>
<path d="M792.955 1052.53C763.398 1051.35 733.907 1056.16 706.252 1066.66C678.598 1077.16 653.351 1093.14 632.028 1113.64L626.369 1119.98V1263.26C626.457 1267.92 627.464 1272.53 629.332 1276.8C631.2 1281.08 633.892 1284.95 637.255 1288.19C640.618 1291.42 644.586 1293.97 648.932 1295.67C653.278 1297.37 657.917 1298.2 662.584 1298.11H922.648C927.315 1298.2 931.954 1297.37 936.299 1295.67C940.645 1293.97 944.613 1291.42 947.976 1288.19C951.339 1284.95 954.031 1281.08 955.899 1276.8C957.767 1272.53 958.774 1267.92 958.862 1263.26V1120.43L953.43 1113.64C932.252 1093.07 907.094 1077.03 879.5 1066.53C851.905 1056.02 822.455 1051.26 792.955 1052.53Z" fill="white"/>
<defs>
<linearGradient id="paint0_linear_906_2" x1="954.047" y1="90.2659" x2="772.728" y2="1005.33" gradientUnits="userSpaceOnUse">
<stop stop-color="#6DDDB8"/>
<stop offset="0.212178" stop-color="#10B981"/>
<stop offset="0.852717" stop-color="#046746"/>
</linearGradient>
<linearGradient id="paint1_linear_906_2" x1="1123.95" y1="64" x2="942.629" y2="979.068" gradientUnits="userSpaceOnUse">
<stop stop-color="#EFBE6B"/>
<stop offset="0.212178" stop-color="#DE900D"/>
<stop offset="0.852717" stop-color="#945D00"/>
</linearGradient>
<linearGradient id="paint2_linear_906_2" x1="845.594" y1="300.837" x2="664.275" y2="1215.9" gradientUnits="userSpaceOnUse">
<stop stop-color="#FF9CCD"/>
<stop offset="0.212178" stop-color="#EC4899"/>
<stop offset="0.852717" stop-color="#BC025E"/>
</linearGradient>
<linearGradient id="paint3_linear_906_2" x1="1049.29" y1="477" x2="874.043" y2="1556.4" gradientUnits="userSpaceOnUse">
<stop stop-color="#3175FF"/>
<stop offset="0.212178" stop-color="#135BEC"/>
<stop offset="0.852717" stop-color="#0B3486"/>
</linearGradient>
</defs>
</svg>
